<svg xmlns="http://www.w3.org/2000/svg" viewBox="0 0 320 120" fill="none" aria-label="Musikstaden">
  <g stroke="#a855f7" stroke-width="2" fill="none" stroke-linecap="round" stroke-linejoin="round">
    <path d="M20 42 L20 28 L32 28 L32 36 L44 36 L44 22 L56 22 L56 38 L68 38 L68 18 L80 18 L80 40 L92 40 L92 30 L104 30 L104 42"/>
    <path d="M108 42 L108 26 L120 26 L120 34 L132 34 L132 20 L148 20 L148 42"/>
    <path d="M152 42 L152 32 L164 32 L164 24 L176 24 L176 42"/>
    <path d="M180 42 L180 28 L192 28 L192 36 L204 36 L204 22 L216 22 L216 42"/>
    <path d="M220 42 L220 30 L232 30 L232 38 L244 38 L244 26 L256 26 L256 42"/>
    <path d="M260 42 L260 34 L272 34 L272 28 L284 28 L284 42"/>
    <path d="M288 42 L288 36 L300 36 L300 42 M292 36 L296 32 L300 36"/>
    <path d="M16 52 L24 48 L32 56 L40 44 L48 58 L56 46 L64 54 L72 50 L80 56 L88 48 L96 58 L104 52 L112 56 L120 48 L128 54 L136 50 L144 58 L152 46 L160 54 L168 48 L176 56 L184 52 L192 58 L200 44 L208 56 L216 50 L224 54 L232 48 L240 58 L248 52 L256 56 L264 48 L272 54 L280 50 L288 56 L296 52 L304 54"/>
    <path d="M16 68 L24 72 L32 64 L40 76 L48 62 L56 74 L64 66 L72 70 L80 64 L88 72 L96 62 L104 68 L112 64 L120 72 L128 66 L136 70 L144 62 L152 74 L160 66 L168 72 L176 64 L184 68 L192 62 L200 76 L208 64 L216 70 L224 66 L232 72 L240 62 L248 68 L256 64 L264 72 L272 66 L280 70 L288 64 L296 68 L304 66"/>
  </g>
  <text x="160" y="108" text-anchor="middle" fill="#a855f7" font-family="Inter, Arial, sans-serif" font-size="18" font-weight="700" letter-spacing="4">MUSIKSTADEN</text>
</svg>
