<?xml version="1.0" encoding="UTF-8"?><svg id="Lager_1" xmlns="http://www.w3.org/2000/svg" width="757.26" height="354.58" viewBox="0 0 757.26 354.58"><defs><style>.cls-1{fill:#8560ff;}</style></defs><path class="cls-1" d="M430.04,225.91l-4.71-8.71c-1.72-.59-6.46-.32-8.29.12l-5.03,9.41-6.05-11.61-6.53,12.29-6.44-11.79-6.79,22.39-6.28-22.03c-4.35,10.58-3.93,20.61-7.25,31.24-4.48-10.43-3.97-19.98-6.89-31.02-4.2,12.5-2.36,27.15-7.21,40.6-4.34-12.09-5.63-26-6.59-37.8-.06-.76-1.21-2.24-1.53-2.4l-3.07,30.27c-.82,8.03-2.12,15.56-4.4,23.31-1.69-7.42-3.12-13.64-3.81-20.29l-3.4-32.61c-3.65,14.15-2.57,27.26-7.53,40.97-3.76-14.41-4.66-27.71-6.73-42.54-3.29,5.73-2.68,11.48-3.93,17.19l-3.26,14.87-6.99-32.31-7.04,22.57-5.63-22.21c-5.07,5.15-5.14,10.71-7.04,15.82l-5-13.9c-.14-.38-1.61-1.18-2.01-1.24s-1.39.85-1.59,1.27l-4.99,10.59-3.24-9.52c-.3-.88-1.38-2.28-2.11-2.73s-3.44.62-3.79,1.41l-3.85,8.84-6.02-11.5c-3.26,6.73-4.44,10.89-6.64,17.01l-5.25-16.22-5.78,19.85c-3.73-6.67-4.05-11.4-6.24-18.52-3.61,10.17-2.44,18.81-6.47,27.85l-6.21-27.64c-3.39,12.97-2.67,27.85-7.18,40.56-4.74-13.21-2.73-29.9-6.65-40.52-2.04,11.06-2.79,20.1-6.13,30.74-4.69-8.97-3.02-24.22-7.23-31.99l-6.44,22.93-5.73-23.02-5.76,15.53-5.97-15.83-5.71,12.4-5.2-12.97-6.11,12.19-5.43-12.19-6.05,10.19-4.05-7.2c-.59-1.05-3.51-1.02-4.07-.12l-4.21,6.76-2.95-6.83-81.24-1.61-20.23-1c4.15-.51,8.19-1.13,12.13-1.27l58.95-2.12,30.33-.66c.97-2.28,2.72-4.87,4.05-4.98l5.7,6.96,5.79-12.53c1.75,4.68,2.94,8.02,5.95,12.53l5.33-12.65c1.93,4.42,3.09,7.15,6.2,12.44l5.36-13.99,5.22,14.05,5.57-17.67,5.67,18.22,6.53-23.43,6.19,23,7.41-30.41,6.3,29.4c4.07-13.68,1.71-28.43,6.47-43.34,1.9,6.17,3.22,12.24,4.03,18.76l2.93,23.71c2.41-10.78,2.83-20.25,6.5-31.16l6.68,31.88c1.35-7.5,2.21-14.06,5.19-21.61l5.83,22.16,5.66-15.54,6.67,16.5,5.64-13.18c1.95,4.71,3.27,7.96,5.6,12.05.71,1.26,4.19-.96,4.65-2.29l3.29-9.37,4.69,10.39c.26.58,1.7,1.74,2.12,1.43s1.39-1.38,1.59-2.04l4.39-13.79,7.25,17.18,5.87-23.85,6.41,22.14c3.97-7.07,3.76-18.69,7.49-28.19,5.69,9.73,3.83,21.02,7.7,28.32l2.34-19.26c.99-8.12,2.19-15.76,3.78-23.49,6.66,17.97,3.92,25.42,8.03,42.51,3.42-15.7.94-33.3,7.7-49.17,3.52,11.48,4.15,22.26,5.67,33.74l1.88,14.24c3.8-11.86,2.09-24.02,7.5-34.94,3.51,12.46,4.58,23.87,6.93,36.74,3.81-7.13,2.12-19.14,6.89-28.49l7.41,29.01,6.59-20.39,6.97,21.15c3.11-5.46,3.75-8.89,5.9-14.83l4.71,11.97c.18.46.89,1.42,1.14,1.74.37.48,2.51-.56,2.7-1.11l3.69-10.59,5.22,10.43c.94,1.89,6.82,2.2,8.12.56,2.64-3.31,3.7-7.86,5.27-11.58l4.34,10.96c.29.74,2,1.87,2.72,1.92.89.07,2.3-1.54,2.58-2.67l5-19.49,6.82,22.51c4.41-7.3,2.75-19.58,7.5-27.83,5.14,11.03,3.01,18.94,7.36,28.52l5.71-23.21,6.58,23.38c4.8-3.72,5.13-7.22,7.28-12.09l3.54,8.69c.4.99,2.49,2.5,3.42,2.45,1.12-.06,2.83-1.78,3.28-2.84l2.68-6.33c1.42,3.54,2.38,9.41,6.44,9.06,4.46-.39,5.45-6.41,7.06-10.01l3.82,8.15c.31.65,1.99,1.6,2.66,1.61s2.06-1.36,2.3-2.16l3.57-11.54,6.02,14.37c4.91-2.89,4.93-6,7.3-10.7l4.54,8.03c.51.89,2.42,2.1,3.32,2.16,3.13.22,4.16-16.64,7.32-21.9,2.77,6.67,4.18,12.63,6.51,20.48l6.61-24c3.43,8.31,4.68,15.6,6.64,24.13,3.37-11.12,2.83-20.83,7.57-31.22l5.83,31.12,5.42-23.76,6.82,25.42,5.42-17.27,5.73,17.22,4.32-14.26,6.62,14.3,5.12-13.29,6.04,13.16,5.81-11.21,4.48,11.48c2.45-2.8,3.81-4.88,6.08-8.64l3.58,6.1,69.59,3.45,1.63.52c-4.38.41-65.36,3.25-65.36,3.25-1.08.03-3.86-.42-5.01-.48l-3.54,7.41-6.41-9.74-5.72,11.91-4.98-11.33-6.34,11.2-4.69-10.78c-2.8,4.32-4,7.02-6.34,12.09l-4.84-12.62c-2.43,5.08-4.02,9.4-6.06,15.47l-5-14.92-6.45,23.95c-2.71-8.32-4.03-15.34-5.68-23.16-3.26,11.44-2.18,18.82-6.62,31.42-4.15-10.4-3.77-20.26-6.95-31.97l-6.63,27.13c-4.82-9.44-3.41-18.33-6.78-27.42l-6.31,17.44-4.31-14.33c-.36-1.18-2.02-3.05-3.23-3.15-3.77-.3-3.1,6.54-7.75,11.42l-3.81-8.49c-.34-.75-.96-1.75-1.37-2.25-.54-.67-3.27.54-3.6,1.36l-4.42,11-3.58-10.92c-.22-.66-1.88-1.92-2.5-1.73-.83.25-2.43,1.44-2.87,2.25l-3.68,6.85-2.94-6.43c-.51-1.11-2.52-2.73-3.58-2.82-1.24-.11-3.11,1.61-3.73,2.83l-2.97,5.88-5.86-10.32-7.26,11.17c-2.12-3.71-3.61-6.16-6.99-10.82l-6.52,19.21-6.09-19.23c-3.38,12.04-4.21,22.31-6.4,34.26-4.79-11.43-3.89-22.62-8.2-33.5l-3.78,12.87-3.03,9.41-4.6-18.08c-.38-1.48-.93-3.17-1.6-3.93-3.24-3.63-6.4,6.36-8.45,9.2Z"/><path class="cls-1" d="M541.3,167.36c8.13-1.13,22.02-7.58,25.98-15.07l.53-11.66,27.85,6.98-.15,24.93c0,1.24-1.39,3.63-2.33,4.96-2.72-7.88-2.59-15.62-3-24.75l-17.15-3.7c-1.54,8.52-.86,23.33-.86,31.93h-3.78c0-7.98.04-12.54-.72-20.38l-4.64,3.76-.34,16.62h-3.53l.11-14.53c-2.07,1-3.66,1.74-4.57,2.58s-3.25,9.32,1.89,11.95h-60.32c1.35-1.35,1.68-3.27,1.68-6.45l.03-16.61-7.63-10.25-.46,43.38h-10.56s-.1-38.67-.1-38.67l-4.72,6.76-.25,21.84h-2.96l-.03-19.34c-2.95,1.09-4.63,3.82-4.63,6.66l-.03,12.69h-3.29l-.11-13.65c-5.8,1.25-5.41,5.27-5.54,8.83-.05,1.31-.12,3.67-.12,4.82h-1.54l.15-9.87c-.53-.49-2.73,1.43-2.89,2.5l-1.08,7.39c-1.73.2-4.15-2.26-4.14-4.27l.05-53.16-20.46-.08-.48,13.2,9.76.29c-.06,13.74.34,26.88-2.34,41.15-2.08-11.86-2.13-22.93-2.78-35.25l-27.25-.18.1,15.83-22.45.25-.14-15.43-12.06-.52c.55-9.19.32-17.69-4.44-25.58-6.81-11.3-22.09-16.32-34.12-10.5-13.62,6.59-18.32,21.36-15.1,35.9l-13.18.41-.47,21.26c-.06,2.53-.94,5.45-1.98,8.59-1.39-2.72-2.42-5.98-2.47-9.13l-.46-27.4,11.17-.08c-.13-20.57,5.85-34.35,26.76-39.25,6-1.11,13.45.13,13.45.13,19.64,5.51,26.91,17.61,27.51,38.85l11.46.59-.11,15.94,10.18.06.09-15.96,23.35.15.35-19.87,31.79.08-.17,49.25c9.92-4.77,19.38-10.82,25.21-20.74l.49-11.76,9.43-.08,1.13,7.85c14.65,15.14,20.99,22.79,43.61,26.32M506.93,175.55l.2-11.63-6-4.16.2,17.24c1.18.39,5.44,0,5.6-1.46ZM517.58,176.83l.09-7.47-7.67-3.97-.06,11.31,7.63.13ZM533.69,174.42l-13.38-4.84-.08,6.86c5.17,0,8.36.45,13.46-2.02ZM551.33,177.05l.14-7.2-11.36,4.64c4.44,1.99,6.15,2.01,11.22,2.56Z"/><path class="cls-1" d="M212.65,81.85l-.43,32.78c-.2,15.46-.35,30.35-2.57,45.32-2.61-20.2-2.19-39.33-2.43-59.28l-.58-48.18-17.99.13-.21,100.94c-.02,9.47-.15,18.04-2.55,27.79-1.9-7.1-2.23-13.56-2.26-20.87l-.53-114.63,9.35-.26c.96-4.05,1.7-6.51,2.71-9.88,2.25-7.47,1.62-15.76,2.41-24.15,3.09,1.09.6,14.04,3.09,23,1.07,3.82,1.6,6.62,2.94,11.14l8.79.44.32,28.26,17.1-7.13c1.58-.66,5.12-.32,6.29.27l-.24,76.04c-.02,8.02.74,15.76-2.48,23.79-2.71-18.52-2.12-36.29-2.41-54.7l-.61-38.23-17.69,7.41Z"/><path class="cls-1" d="M130.03,158.25l-.4,26.82-16.52.31-.26,15.51c-14.7.74-28.78,1.15-44.07.46,12.64-4.57,25.49-3.16,38.57-6.48l.29-15.42,16.27-.2.03-26.87,25.23-.12.16-24,24.03.29c-.34,18.77,1.3,37.72-2.22,55.73-1.01-2.41-2.16-5.7-2.2-8.52l-.6-41.07-13.37-.09-.25,36.42c-.03,3.76.16,7.69-3.79,10.37-1.2-7.91-1.25-13.95-1.34-22.83l-19.56-.34Z"/><path class="cls-1" d="M283.34,131.52l-12.22-.09c-1.05,13.55.71,25.41-2.47,39.02-3.94-19.38-2.11-37.77-3.1-57.46l-15.89-2.84-.87,48.44c-.09,5.04-.71,9.65-1.87,15.22-1.23-2.33-2.59-5.45-2.61-8.18l-.59-64,27.21,5.78-.12,17.71,18.4.12-.39,39.36c-.06,5.9-.62,11.5-2.45,17.59-2.48-7.53-2.55-14.34-2.64-21.53l-.39-29.12Z"/><path class="cls-1" d="M656.61,201.72l-.07-16.3-25.07-.19-.27-16.57-21.58-.03-.4,12.31c-.07,2.24-1.65,4.7-3.44,5.8-1.1-2.89-2.19-5.8-2.2-8.14l-.06-15.69,33.76.09.27,16.57,25.33.13.21,15.92,12.32,1.59,40.13,3.81c-19.66,2.61-39.17.61-58.93.7Z"/><polygon class="cls-1" points="129.55 334.23 129.22 299.03 112.56 323.14 95.84 298.71 95.48 334.19 83.86 333.98 83.71 280.99 97.06 280.72 112.97 304.52 128.17 281 140.67 281.02 140.88 334.13 129.55 334.23"/><polygon class="cls-1" points="673.54 333.95 662.04 333.99 636.31 299.73 635.99 334.17 624.37 333.98 624.48 280.88 636.54 280.97 661.81 315.33 662.14 281.05 673.55 280.99 673.54 333.95"/><path class="cls-1" d="M559.32,306.38c.55,14.6-8.14,26.12-22.74,27.45-8.38.77-16.94.46-26.01.39l-.08-53.1c8.33-.19,16.72-.38,24.93.17,13.68.91,23.37,11.3,23.89,25.09ZM546.9,307.51c.03-7.87-3.65-13.76-11.06-15.66-4.03-1.03-8.43-1.13-13.48-1.01v33.36c4.23,0,7.91.04,11.35-.23,8.8-.68,13.16-7.81,13.19-16.47Z"/><polygon class="cls-1" points="344.63 333.61 330.77 334.19 315.69 312.11 308.5 319.91 308 334.23 296.31 334.03 296.39 280.94 307.97 280.89 308.47 304.86 328.86 280.93 343.14 281.26 323.48 303.76 344.63 333.61"/><path class="cls-1" d="M190.11,280.94l11.87.04-.08,34.83c-.03,13.2-11.14,19.92-23.15,19.76s-21.99-6.76-22.08-19.86l-.26-34.79,11.97.1.26,33.89c.05,6.71,5.7,10.65,11.14,10.6,6.93-.06,10.56-5.35,10.52-12.16l-.19-32.42Z"/><polygon class="cls-1" points="603.92 312.92 582.81 313.03 583 324.65 609.74 324.34 609.73 334.23 571.02 334.26 571.03 280.95 609.34 280.92 609.53 290.69 582.94 290.8 582.76 303.01 603.87 303.24 603.92 312.92"/><path class="cls-1" d="M483.42,323.17l-22.65-.05-4.46,10.97-12.42-.12,22.1-52.92,11.91-.16,22.19,52.72-12.46.71-4.2-11.15ZM479.28,313.29l-7.49-18.56-7.51,19.04,15-.48Z"/><path class="cls-1" d="M243.71,333.6c-10.69,3.62-22.01,1.68-31.16-4.72l4.36-9.13c6.66,6.38,24.29,9.05,24.95.56.14-1.84-2.03-4.99-3.91-5.54l-13.82-3.99c-6.32-1.83-10.61-6.75-11.34-12.57-.82-6.57,2-13.05,8.43-15.81,9.7-4.17,20.62-3.16,29.56,2.24l-3.49,9.09c-6.03-4.07-21.91-6.69-22.6.77-.16,1.71,2.16,5.13,3.93,5.62l13.93,3.87c6.8,1.89,11.25,7.42,11.51,13.47.31,7.23-2.73,13.57-10.35,16.15Z"/><path class="cls-1" d="M383.95,332.89c-10.55,4.82-22.92,2.58-31.98-4.02l4.02-9.13c5.71,5.45,24.22,9.37,25.05.74.15-1.57-1.76-4.67-3.4-5.24l-17.13-5.89c-6.6-2.27-8.68-9.38-8.03-15.79.61-6.03,5.47-11.12,12.32-12.77,8.72-2.09,17.38-.92,25.62,3.86l-3.74,9.24c-6.28-4.32-21.18-7.14-22.55.71-.28,1.6,1.8,5.06,3.41,5.52l13.19,3.79c6.63,1.9,11.36,6.54,12.15,12.68.85,6.58-1.98,13.11-8.95,16.3Z"/><polygon class="cls-1" points="427.74 334.01 415.72 334.03 415.65 291.03 400.57 290.92 400.71 280.87 442.16 280.91 442.45 290.86 427.74 291.03 427.74 334.01"/><polygon class="cls-1" points="278.91 333.96 267.01 334.07 266.95 280.95 278.78 280.99 278.91 333.96"/></svg>